<?xml version="1.0" encoding="UTF-8" standalone="no"?>
<svg
   xmlns:dc="http://purl.org/dc/elements/1.1/"
   xmlns:cc="http://creativecommons.org/ns#"
   xmlns:rdf="http://www.w3.org/1999/02/22-rdf-syntax-ns#"
   xmlns:svg="http://www.w3.org/2000/svg"
   xmlns="http://www.w3.org/2000/svg"
   xmlns:sodipodi="http://sodipodi.sourceforge.net/DTD/sodipodi-0.dtd"
   xmlns:inkscape="http://www.inkscape.org/namespaces/inkscape"
   version="1.1"
   id="svg2985"
   inkscape:version="1.0.2 (e86c870879, 2021-01-15)"
   sodipodi:docname="tupperware-print-logo-black.svg"
   x="0px"
   y="0px"
   width="241px"
   height="42px"
   viewBox="0 0 241 42"
   style="enable-background:new 0 0 241 42;"
   xml:space="preserve"><metadata
   id="metadata7"><rdf:RDF><cc:Work
       rdf:about=""><dc:format>image/svg+xml</dc:format><dc:type
         rdf:resource="http://purl.org/dc/dcmitype/StillImage" /></cc:Work></rdf:RDF></metadata><defs
   id="defs5" />
<sodipodi:namedview
   bordercolor="#666666"
   borderopacity="1"
   gridtolerance="10"
   guidetolerance="10"
   id="namedview2987"
   inkscape:current-layer="svg2985"
   inkscape:cx="140.21865"
   inkscape:cy="37.306629"
   inkscape:pageopacity="0"
   inkscape:pageshadow="2"
   inkscape:window-height="1016"
   inkscape:window-maximized="1"
   inkscape:window-width="1920"
   inkscape:window-x="0"
   inkscape:window-y="27"
   inkscape:zoom="2.4955008"
   objecttolerance="10"
   pagecolor="#ffffff"
   showgrid="false"
   inkscape:document-rotation="0">
	</sodipodi:namedview>

<g
   id="g12"
   transform="matrix(0.02674091,0,0,-0.02674091,0,41.458462)"
   style="fill:#000000"><path
     d="M 941.797,1263 H 324.105 c 233.997,30.52 430.204,95.92 584.262,191.84 l -33.429,58.14 C 667.109,1383.63 343.004,1305.14 0,1305.14 v -258.7 H 356.086 V 232.539 H 591.531 V 1046.44 H 941.797 Z M 1235.38,218.012 c 129.34,0 228.17,58.136 271.78,168.59 h 4.36 V 232.539 h 222.37 V 1046.44 H 1504.25 V 594.438 c 0,-130.797 -63.95,-180.219 -168.59,-180.219 -104.65,0 -164.24,49.422 -164.24,178.761 v 453.46 H 941.785 V 520.313 c 0,-196.204 103.195,-302.301 293.595,-302.301 M 2056.53,0 v 361.898 h 4.36 c 58.14,-100.289 148.24,-145.339 264.52,-145.339 209.29,0 360.44,143.882 360.44,422.933 0,279.051 -151.15,422.938 -360.44,422.938 -120.64,0 -212.2,-47.96 -271.78,-155.508 h -4.37 V 1046.44 H 1826.9 V 0 Z m 190.4,412.762 c -123.55,0 -204.93,68.308 -204.93,226.73 0,158.422 81.38,225.274 204.93,225.274 123.53,0 204.92,-66.852 204.92,-225.274 0,-158.422 -81.39,-226.73 -204.92,-226.73 M 2989.6,0 v 361.898 h 4.37 c 58.13,-100.289 148.23,-145.339 264.51,-145.339 209.29,0 360.44,143.882 360.44,422.933 0,279.051 -151.15,422.938 -360.44,422.938 -120.63,0 -212.19,-47.96 -271.78,-155.508 h -4.37 V 1046.44 H 2759.97 V 0 Z M 3180,412.762 c -123.55,0 -204.94,68.308 -204.94,226.73 0,158.422 81.39,225.274 204.94,225.274 123.53,0 204.92,-66.852 204.92,-225.274 0,-158.422 -81.39,-226.73 -204.92,-226.73 m 1120.55,124.992 c -49.41,-90.106 -97.38,-133.703 -194.75,-133.703 -133.71,0 -199.11,66.847 -200.57,215.09 h 565.37 v 42.148 c 0,260.16 -146.79,405.501 -383.69,405.501 -252.89,0 -412.76,-165.692 -412.76,-427.298 0,-261.613 159.87,-427.301 430.2,-427.301 203.47,0 309.56,74.129 380.79,218.02 z M 4084,892.383 c 97.37,0 155.51,-40.699 170.04,-143.883 h -345.91 c 14.54,101.734 78.5,143.883 175.87,143.883 m 680.17,154.057 H 4540.36 V 232.539 h 229.63 v 453.465 c 0,116.266 63.95,156.961 143.88,156.961 53.77,0 84.3,-8.715 117.73,-26.16 l 69.76,210.745 c -34.88,20.35 -74.13,33.43 -123.54,33.43 -109.01,0 -178.76,-63.957 -209.29,-181.679 h -4.36 z M 6067.86,446.191 5916.71,1046.44 H 5643.48 L 5501.04,450.551 5365.88,1046.44 H 5130.43 L 5331,232.539 h 312.48 l 136.61,568.281 142.44,-568.281 h 309.57 l 200.56,813.901 h -229.63 z m 713.62,-229.632 c 120.63,0 212.2,47.953 271.78,155.511 h 4.37 V 232.539 h 222.36 V 1046.44 H 7050.36 V 917.086 H 7046 c -58.14,100.294 -148.24,145.344 -264.52,145.344 -209.29,0 -360.44,-143.887 -360.44,-422.938 0,-279.051 151.15,-422.933 360.44,-422.933 m 78.48,197.66 c -123.53,0 -204.92,66.851 -204.92,225.273 0,158.422 81.39,226.731 204.92,226.731 123.55,0 204.93,-68.309 204.93,-226.731 0,-158.422 -81.38,-225.273 -204.93,-225.273 m 742.69,-181.68 v 453.465 c 0,116.266 63.94,156.961 158.41,156.961 53.78,0 84.3,-8.715 117.72,-26.16 l 69.77,210.745 c -37.79,20.35 -78.48,33.43 -130.8,33.43 -113.37,0 -184.59,-63.957 -216.56,-181.679 h -4.36 V 1046.44 H 7373.01 V 232.539 Z m 938.86,305.215 c -49.42,-90.106 -97.37,-133.703 -194.76,-133.703 -133.71,0 -199.11,66.847 -200.56,215.09 h 565.36 v 42.148 c 0,260.16 -146.79,405.501 -383.69,405.501 -252.89,0 -412.76,-165.692 -412.76,-427.298 0,-261.613 159.87,-427.301 430.2,-427.301 203.48,0 309.57,74.129 380.79,218.02 z m -216.55,354.629 c 97.37,0 155.51,-40.699 170.04,-143.883 h -345.9 c 14.53,101.734 78.48,143.883 175.86,143.883 m 543.57,396.777 c -88.66,0 -143.89,-52.32 -143.89,-140.98 0,-88.66 55.23,-140.98 143.89,-140.98 88.66,0 143.88,52.32 143.88,140.98 0,88.66 -55.22,140.98 -143.88,140.98 m 0,-263.07 c -78.48,0 -122.09,43.61 -122.09,122.09 0,78.48 43.61,122.09 122.09,122.09 78.48,0 122.08,-43.61 122.08,-122.09 0,-78.48 -43.6,-122.09 -122.08,-122.09 m 68.31,158.42 c 0,26.17 -17.44,39.24 -47.96,39.24 h -78.48 v -145.34 h 29.06 v 58.14 h 43.61 c 14.52,0 18.89,-4.36 18.89,-15.99 v -20.34 c 0,-8.73 0,-14.54 2.9,-21.81 h 31.98 c -4.36,7.27 -4.36,13.08 -4.36,21.81 v 26.16 c 0,14.53 -4.36,23.26 -18.9,26.16 14.54,4.35 23.26,14.53 23.26,31.97 m -97.38,-23.25 v 36.33 h 45.05 c 14.54,0 21.81,-5.81 21.81,-17.44 0,-13.08 -7.27,-18.89 -21.81,-18.89 h -45.05"
     style="fill:#000000;fill-opacity:1;fill-rule:nonzero;stroke:none"
     id="path14" /></g></svg>
